# xmcd
#
# Track frame offsets:
#	150
#	13976
#	29660
#	40695
#	56990
#	72945
#	92368
#	106043
#	117762
#	131868
#	142647
#	158230
#	173076
#	188625
#	204546
#	216847
#	231168
#	235262
#	239503
#	253070
#	269102
#	289336
#	299082
#	313541
#	331788
#	344335
#
# Disc length: 4774 seconds
#
# Revision: 0
# Processed by: cddbd v1.5.2PL0 Copyright (c) Steve Scherf et al.
# Submitted via: EZCDAudioConverter 1.3.4.1
#
DISCID=8f12a41a
DTITLE=Big Star - Keep An Eye On The Sky 1/4
DYEAR=2009
DGENRE=
TTITLE0=Psychedelic Stuff [Original Mix]
TTITLE1=All I See Is You
TTITLE2=Every Day As We Grow Closer [Original Mix]
TTITLE3=Try Again [Early Version]
TTITLE4=Feel
TTITLE5=The Ballad Of El Goodo
TTITLE6=In The Street [Alternate Mix]
TTITLE7=Thirteen [Alternate Mix]
TTITLE8=Don't Lie To Me
TTITLE9=The India Song [Alternate Mix]
TTITLE10=When My Baby's Beside Me [Alternate Mix]
TTITLE11=My Life Is Right [Alternate Mix]
TTITLE12=Give Me Another Chance [Alternate Mix]
TTITLE13=Try Again
TTITLE14=Gone With The Light
TTITLE15=Watch The Sunrise [Single]
TTITLE16=ST 100-6 [Alternate Mix]
TTITLE17=The Preacher [Excerpt]
TTITLE18=In The Street [Alternate Single]
TTITLE19=Feel [Alternate Mix]
TTITLE20=The Ballad Of El Goodo [Alternate Lyrics]
TTITLE21=The India Song [Alternate Version]
TTITLE22=Country Morn
TTITLE23=I Got Kinda Lost [Demo]
TTITLE24=Back Of A Car [Demo]
TTITLE25=Motel Blues [Demo]
EXTD=
EXTT0=
EXTT1=
EXTT2=
EXTT3=
EXTT4=
EXTT5=
EXTT6=
EXTT7=
EXTT8=
EXTT9=
EXTT10=
EXTT11=
EXTT12=
EXTT13=
EXTT14=
EXTT15=
EXTT16=
EXTT17=
EXTT18=
EXTT19=
EXTT20=
EXTT21=
EXTT22=
EXTT23=
EXTT24=
EXTT25=
PLAYORDER=
